%TF.GenerationSoftware,KiCad,Pcbnew,9.0.3*%
%TF.CreationDate,2025-11-21T15:40:39+05:30*%
%TF.ProjectId,Motor Drivers-2,4d6f746f-7220-4447-9269-766572732d32,rev?*%
%TF.SameCoordinates,Original*%
%TF.FileFunction,Plated,1,2,PTH,Drill*%
%TF.FilePolarity,Positive*%
%FSLAX46Y46*%
G04 Gerber Fmt 4.6, Leading zero omitted, Abs format (unit mm)*
G04 Created by KiCad (PCBNEW 9.0.3) date 2025-11-21 15:40:39*
%MOMM*%
%LPD*%
G01*
G04 APERTURE LIST*
%TA.AperFunction,ViaDrill*%
%ADD10C,0.300000*%
%TD*%
%TA.AperFunction,ViaDrill*%
%ADD11C,0.400000*%
%TD*%
%TA.AperFunction,ViaDrill*%
%ADD12C,0.500000*%
%TD*%
%TA.AperFunction,ViaDrill*%
%ADD13C,0.700000*%
%TD*%
%TA.AperFunction,ComponentDrill*%
%ADD14C,0.800000*%
%TD*%
%TA.AperFunction,ComponentDrill*%
%ADD15C,0.950000*%
%TD*%
%TA.AperFunction,ViaDrill*%
%ADD16C,1.000000*%
%TD*%
%TA.AperFunction,ComponentDrill*%
%ADD17C,1.000000*%
%TD*%
%TA.AperFunction,ComponentDrill*%
%ADD18C,1.016000*%
%TD*%
%TA.AperFunction,ComponentDrill*%
%ADD19C,1.020000*%
%TD*%
%TA.AperFunction,ComponentDrill*%
%ADD20C,1.320000*%
%TD*%
%TA.AperFunction,ViaDrill*%
%ADD21C,1.500000*%
%TD*%
%TA.AperFunction,ViaDrill*%
%ADD22C,2.000000*%
%TD*%
%TA.AperFunction,ComponentDrill*%
%ADD23C,2.500000*%
%TD*%
%TA.AperFunction,ComponentDrill*%
%ADD24C,4.500000*%
%TD*%
G04 APERTURE END LIST*
D10*
X123655350Y-148355350D03*
X127470000Y-206670000D03*
X128470000Y-173595000D03*
X129454950Y-139672550D03*
X129970000Y-99795000D03*
X129970000Y-196670000D03*
X130220000Y-122420000D03*
X130519000Y-159170000D03*
X131757500Y-128382500D03*
X131970000Y-111170000D03*
X131970000Y-141170000D03*
X132451988Y-172651988D03*
X132470000Y-108670000D03*
X132595000Y-143795000D03*
X133453600Y-201186400D03*
X133470000Y-239170000D03*
X133470000Y-255170000D03*
X133845000Y-123045000D03*
X133931000Y-159209000D03*
X133970000Y-225170000D03*
X133970000Y-227435100D03*
X134141800Y-186420000D03*
X134970000Y-170170000D03*
X136325100Y-157170000D03*
X136969800Y-226001100D03*
X137470000Y-190920000D03*
X137595000Y-126795000D03*
X139095000Y-161295000D03*
X139470000Y-104670000D03*
X139834600Y-167534600D03*
X140520000Y-224140000D03*
X142970000Y-134670000D03*
X146220000Y-157170000D03*
X147220000Y-161420000D03*
X147470000Y-206670000D03*
X150765500Y-200684300D03*
X153720000Y-216920000D03*
X153734500Y-227435100D03*
X155462200Y-151662200D03*
X156780000Y-127320000D03*
X156820800Y-203111200D03*
X158970000Y-130670000D03*
X162641500Y-143231700D03*
X162641500Y-259810300D03*
X164694265Y-152394265D03*
X165470000Y-131170000D03*
X165610500Y-142061700D03*
X167720000Y-163920000D03*
X168470000Y-160670000D03*
X169470000Y-222170000D03*
X173470000Y-150420000D03*
X175854500Y-111633300D03*
X177470000Y-259810300D03*
X179990000Y-121180000D03*
X181730000Y-105940000D03*
X182133000Y-137257000D03*
X183220000Y-124920000D03*
X183424500Y-268679200D03*
X185470000Y-110760000D03*
X188470000Y-119670000D03*
X189041500Y-218422100D03*
X189362500Y-106024300D03*
X190470000Y-117670000D03*
X192067700Y-143170000D03*
X195970000Y-130920000D03*
X196220000Y-108170000D03*
X198269500Y-182946500D03*
X199220000Y-129920000D03*
X200020000Y-165923900D03*
X200484650Y-191184650D03*
X201041900Y-215862900D03*
X203861500Y-179990200D03*
X204489000Y-217586000D03*
X205100000Y-184319300D03*
X205720000Y-108920000D03*
X208934650Y-202250850D03*
X209970000Y-223155000D03*
X211382600Y-106670000D03*
X211985000Y-220560000D03*
X213470000Y-204170000D03*
X214595000Y-106545000D03*
X215220000Y-119670000D03*
X215220000Y-139670000D03*
X217470000Y-194170000D03*
X218220000Y-161920000D03*
X219220000Y-185920000D03*
X219345000Y-119345000D03*
X220970000Y-123670000D03*
X221601200Y-167751100D03*
X222970000Y-254670000D03*
X223470000Y-224670000D03*
X223478000Y-201162000D03*
X223720000Y-176170000D03*
X224339700Y-164920000D03*
X224470000Y-105170000D03*
X224470000Y-239170000D03*
X224529000Y-228046300D03*
X224618200Y-110818200D03*
X224687500Y-185902800D03*
X224970000Y-134170000D03*
X224970000Y-139670000D03*
X224970000Y-172170000D03*
X224970000Y-258170000D03*
X225470000Y-154170000D03*
X225970000Y-121801500D03*
X225970000Y-156670000D03*
X226470000Y-163670000D03*
X226470000Y-186651600D03*
X227002100Y-104040500D03*
X227058600Y-209245600D03*
X227058600Y-223670000D03*
X227470000Y-136670000D03*
X227470000Y-186670000D03*
X227970000Y-125291800D03*
X227970000Y-208170000D03*
X229720000Y-255002200D03*
X231932500Y-124632500D03*
X232970000Y-144170000D03*
D11*
X227470000Y-173920000D03*
X227470000Y-175170000D03*
X227970000Y-158420000D03*
X227970000Y-159670000D03*
D12*
X114470000Y-103670000D03*
X114470000Y-204420000D03*
X114720000Y-116170000D03*
X114970000Y-172670000D03*
X114970000Y-233170000D03*
X115220000Y-138420000D03*
X115720000Y-185920000D03*
X115720000Y-218170000D03*
X116220000Y-151170000D03*
X116470000Y-246420000D03*
X118145000Y-126170000D03*
X118170000Y-113870000D03*
X118170000Y-214645000D03*
X118320000Y-227645000D03*
X118345000Y-195370000D03*
X118420000Y-243645000D03*
X118570000Y-182895000D03*
X118695000Y-160645000D03*
X118720000Y-148670000D03*
X119020000Y-256170000D03*
X119395000Y-126195000D03*
X119470000Y-113920000D03*
X119470000Y-214645000D03*
X119570000Y-227670000D03*
X119620000Y-195345000D03*
X119795000Y-243620000D03*
X119820000Y-182895000D03*
X119870000Y-160645000D03*
X119895000Y-148645000D03*
X120295000Y-256145000D03*
X122970000Y-107920000D03*
X123220000Y-120670000D03*
X123220000Y-208420000D03*
X123470000Y-142420000D03*
X123720000Y-176670000D03*
X123720000Y-237420000D03*
X124470000Y-221420000D03*
X124720000Y-189170000D03*
X124970000Y-154670000D03*
X125220000Y-249920000D03*
X125970000Y-119595000D03*
X126220000Y-187170000D03*
X126450000Y-170090000D03*
X126649000Y-106165900D03*
X127470000Y-134420000D03*
X128220000Y-204670000D03*
X128970000Y-171670000D03*
X129440000Y-249660000D03*
X129970000Y-155170000D03*
X129970000Y-187095000D03*
X129970000Y-233170000D03*
X130470000Y-119670000D03*
X130970000Y-134420000D03*
X131470000Y-220595000D03*
X131540000Y-251160000D03*
X132970000Y-156740000D03*
X132970000Y-233170000D03*
X133330000Y-106240000D03*
X133970000Y-205420000D03*
X134470000Y-220670000D03*
X222970000Y-261670000D03*
X224720000Y-143670000D03*
X224970000Y-245170000D03*
X225220000Y-108670000D03*
X225470000Y-207420000D03*
X225720000Y-128670000D03*
X225970000Y-195170000D03*
X225970000Y-228420000D03*
X226970000Y-261670000D03*
X227970000Y-143670000D03*
X228470000Y-195170000D03*
X229075903Y-243669999D03*
X229220000Y-207420000D03*
X229220000Y-228420000D03*
X229970000Y-130170000D03*
X230970000Y-108670000D03*
X231920000Y-145545000D03*
X232720000Y-177170000D03*
X232720000Y-242920000D03*
X232970000Y-111170000D03*
X232970000Y-211420000D03*
X233470000Y-157670000D03*
X233970000Y-188920000D03*
X234462831Y-123162831D03*
X234470000Y-226670000D03*
X234470000Y-259670000D03*
X237170000Y-151670000D03*
X237370000Y-139195000D03*
X237520000Y-236695000D03*
X237620000Y-249695000D03*
X237645000Y-170920000D03*
X237745000Y-183145000D03*
X237970000Y-104920000D03*
X237970000Y-205170000D03*
X238120000Y-217645000D03*
X238170000Y-116945000D03*
X238395000Y-151695000D03*
X238620000Y-139195000D03*
X238720000Y-236695000D03*
X238845000Y-170920000D03*
X238895000Y-183145000D03*
X238970000Y-249670000D03*
X239220000Y-205170000D03*
X239320000Y-217695000D03*
X239345000Y-104845000D03*
X239420000Y-116970000D03*
X241282500Y-129420000D03*
X241720000Y-180670000D03*
X241945000Y-214820000D03*
X241970000Y-114670000D03*
X241970000Y-148920000D03*
X241970000Y-246420000D03*
X242470000Y-162920000D03*
X242970000Y-193170000D03*
X244157500Y-228170000D03*
X244220000Y-260170000D03*
D13*
X217720000Y-171170000D03*
X217720000Y-173920000D03*
D14*
%TO.C,C1*%
X210320000Y-93220000D03*
X215320000Y-93220000D03*
D15*
%TO.C,JE1*%
X102970000Y-130170000D03*
X102970000Y-132670000D03*
X102970000Y-135170000D03*
%TO.C,JE2*%
X103470000Y-166170000D03*
X103470000Y-168670000D03*
X103470000Y-171170000D03*
%TO.C,JE3*%
X103470000Y-198170000D03*
X103470000Y-200670000D03*
X103470000Y-203170000D03*
%TO.C,J14*%
X110970000Y-92932500D03*
X113470000Y-92932500D03*
X115970000Y-92932500D03*
%TO.C,J21*%
X117970000Y-270670000D03*
%TO.C,J14*%
X118470000Y-92932500D03*
%TO.C,J21*%
X120470000Y-270670000D03*
X122970000Y-270670000D03*
%TO.C,J6*%
X127470000Y-91882500D03*
X129970000Y-91882500D03*
%TO.C,J16*%
X131470000Y-271670000D03*
%TO.C,J6*%
X132470000Y-91882500D03*
%TO.C,J16*%
X133970000Y-271670000D03*
X136470000Y-271670000D03*
X138970000Y-271670000D03*
%TO.C,J19*%
X149470000Y-165170000D03*
X149470000Y-167670000D03*
X149470000Y-170170000D03*
X149470000Y-172670000D03*
X149470000Y-175170000D03*
X149470000Y-177670000D03*
X149470000Y-180170000D03*
X149470000Y-182670000D03*
%TO.C,J7*%
X201970000Y-271170000D03*
X204470000Y-271170000D03*
X206970000Y-271170000D03*
%TO.C,J20*%
X209470000Y-166170000D03*
X209470000Y-168670000D03*
X209470000Y-171170000D03*
X209470000Y-173670000D03*
X209470000Y-176170000D03*
X209470000Y-178670000D03*
X209470000Y-181170000D03*
X209470000Y-183670000D03*
%TO.C,J7*%
X209470000Y-271170000D03*
%TO.C,J17*%
X218720000Y-270145000D03*
X221220000Y-270145000D03*
%TO.C,J15*%
X222470000Y-93670000D03*
%TO.C,J17*%
X223720000Y-270145000D03*
%TO.C,J15*%
X224970000Y-93670000D03*
%TO.C,J17*%
X226220000Y-270145000D03*
%TO.C,J15*%
X227470000Y-93670000D03*
X229970000Y-93670000D03*
%TO.C,J22*%
X234970000Y-270170000D03*
X237470000Y-270170000D03*
%TO.C,J18*%
X237970000Y-93670000D03*
%TO.C,J22*%
X239970000Y-270170000D03*
%TO.C,J18*%
X240470000Y-93670000D03*
X242970000Y-93670000D03*
%TO.C,JE4*%
X252470000Y-127170000D03*
X252470000Y-129670000D03*
X252470000Y-132170000D03*
%TO.C,JE5*%
X252470000Y-161670000D03*
X252470000Y-164170000D03*
X252470000Y-166670000D03*
%TO.C,JE6*%
X252970000Y-193170000D03*
X252970000Y-195670000D03*
X252970000Y-198170000D03*
%TD*%
D16*
X154220000Y-240670000D03*
D17*
%TO.C,J13*%
X151720000Y-262370000D03*
%TO.C,J3*%
X151970000Y-270707500D03*
%TO.C,J13*%
X154220000Y-262370000D03*
%TO.C,J3*%
X154470000Y-270707500D03*
%TO.C,U15*%
X156840000Y-133367000D03*
X156840000Y-135907000D03*
X156840000Y-138447000D03*
%TO.C,U24*%
X159330000Y-106390000D03*
X159330000Y-124170000D03*
%TO.C,U15*%
X159380000Y-133367000D03*
X159380000Y-135907000D03*
X159380000Y-138447000D03*
X161920000Y-133367000D03*
X161920000Y-135907000D03*
X161920000Y-138447000D03*
X164460000Y-133367000D03*
X164460000Y-135907000D03*
X164460000Y-138447000D03*
%TO.C,J11*%
X164569500Y-175045000D03*
X164569500Y-177585000D03*
X164569500Y-180125000D03*
X164569500Y-182665000D03*
X164569500Y-185205000D03*
X164569500Y-187745000D03*
X164569500Y-190285000D03*
X164569500Y-192825000D03*
X164569500Y-195365000D03*
X164569500Y-197905000D03*
X164569500Y-200445000D03*
X164569500Y-202985000D03*
X164569500Y-205525000D03*
X164569500Y-208065000D03*
X164569500Y-210605000D03*
X164569500Y-213145000D03*
X164569500Y-215685000D03*
X164569500Y-218225000D03*
X164569500Y-220765000D03*
X164569500Y-223305000D03*
X164569500Y-225845000D03*
X164569500Y-228385000D03*
%TO.C,U15*%
X169540000Y-133367000D03*
X169540000Y-135907000D03*
X169540000Y-138447000D03*
X172080000Y-133367000D03*
X172080000Y-135907000D03*
X172080000Y-138447000D03*
X174620000Y-133367000D03*
X174620000Y-135907000D03*
X174620000Y-138447000D03*
X177160000Y-133367000D03*
X177160000Y-135907000D03*
X177160000Y-138447000D03*
X184780000Y-133367000D03*
X184780000Y-135907000D03*
X184780000Y-138447000D03*
X187320000Y-133367000D03*
X187320000Y-135907000D03*
X187320000Y-138447000D03*
X189860000Y-133367000D03*
X189860000Y-135907000D03*
X189860000Y-138447000D03*
X192400000Y-133367000D03*
X192400000Y-135907000D03*
X192400000Y-138447000D03*
%TO.C,J12*%
X194540000Y-174840000D03*
X194540000Y-177380000D03*
X194540000Y-179920000D03*
X194540000Y-182460000D03*
X194540000Y-185000000D03*
X194540000Y-187540000D03*
X194540000Y-190080000D03*
X194540000Y-192620000D03*
X194540000Y-195160000D03*
X194540000Y-197700000D03*
X194540000Y-200240000D03*
X194540000Y-202780000D03*
X194540000Y-205320000D03*
X194540000Y-207860000D03*
X194540000Y-210400000D03*
X194540000Y-212940000D03*
X194540000Y-215480000D03*
X194540000Y-218020000D03*
X194540000Y-220560000D03*
X194540000Y-223100000D03*
X194540000Y-225640000D03*
X194540000Y-228180000D03*
%TO.C,U15*%
X197480000Y-133367000D03*
X197480000Y-135907000D03*
X197480000Y-138447000D03*
%TO.C,U24*%
X199970000Y-106390000D03*
X199970000Y-124170000D03*
%TO.C,U15*%
X200020000Y-133367000D03*
X200020000Y-135907000D03*
X200020000Y-138447000D03*
X202560000Y-133367000D03*
X202560000Y-135907000D03*
X202560000Y-138447000D03*
X205100000Y-133367000D03*
X205100000Y-135907000D03*
X205100000Y-138447000D03*
D18*
X151887000Y-138447000D03*
X151887000Y-140987000D03*
X151887000Y-143527000D03*
X151887000Y-146067000D03*
X151887000Y-148607000D03*
X151887000Y-151147000D03*
X210180000Y-138447000D03*
X210180000Y-140987000D03*
X210180000Y-143527000D03*
X210180000Y-146067000D03*
X210180000Y-148607000D03*
X210180000Y-151147000D03*
D19*
%TO.C,U1*%
X168110000Y-174950000D03*
X168110000Y-177490000D03*
X168110000Y-180030000D03*
X168110000Y-182570000D03*
X168110000Y-185110000D03*
X168110000Y-187650000D03*
X168110000Y-190190000D03*
X168110000Y-192730000D03*
X168110000Y-195270000D03*
X168110000Y-197810000D03*
X168110000Y-200350000D03*
X168110000Y-202890000D03*
X168110000Y-205430000D03*
X168110000Y-207970000D03*
X168110000Y-210510000D03*
X168110000Y-213050000D03*
X168110000Y-215590000D03*
X168110000Y-218130000D03*
X168110000Y-220670000D03*
X168110000Y-223210000D03*
X168110000Y-225750000D03*
X168110000Y-228290000D03*
X190970000Y-174950000D03*
X190970000Y-177490000D03*
X190970000Y-180030000D03*
X190970000Y-182570000D03*
X190970000Y-185110000D03*
X190970000Y-187650000D03*
X190970000Y-190190000D03*
X190970000Y-192730000D03*
X190970000Y-195270000D03*
X190970000Y-197810000D03*
X190970000Y-200350000D03*
X190970000Y-202890000D03*
X190970000Y-205430000D03*
X190970000Y-207970000D03*
X190970000Y-210510000D03*
X190970000Y-213050000D03*
X190970000Y-215590000D03*
X190970000Y-218130000D03*
X190970000Y-220670000D03*
X190970000Y-223210000D03*
X190970000Y-225750000D03*
X190970000Y-228290000D03*
D20*
%TO.C,F1*%
X218225000Y-54400000D03*
X218225000Y-59400000D03*
%TD*%
D21*
X104970000Y-175170000D03*
X106220000Y-139420000D03*
X107970000Y-172170000D03*
X108220000Y-135670000D03*
X108720000Y-164670000D03*
X108720000Y-167920000D03*
X158720000Y-214920000D03*
X158720000Y-220170000D03*
X216470000Y-228170000D03*
X216470000Y-232420000D03*
X219470000Y-134420000D03*
X219470000Y-141170000D03*
X244220000Y-200670000D03*
X247220000Y-195670000D03*
X258220000Y-162170000D03*
D22*
X122950000Y-94590000D03*
X122990000Y-98040000D03*
X142970000Y-211670000D03*
X143470000Y-120670000D03*
X143720000Y-125920000D03*
X151470000Y-211670000D03*
X153470000Y-120670000D03*
X153720000Y-125920000D03*
X231720000Y-257170000D03*
X231970000Y-250170000D03*
X233220000Y-218170000D03*
X233220000Y-224670000D03*
D23*
%TO.C,U15*%
X153030000Y-135145000D03*
X153030000Y-154195000D03*
X208910000Y-135145000D03*
X208910000Y-154195000D03*
D24*
%TO.C,M2*%
X103645000Y-145670000D03*
X103645000Y-152870000D03*
%TO.C,M1*%
X103970000Y-112470000D03*
X103970000Y-119670000D03*
%TO.C,M3*%
X103970000Y-181732500D03*
X103970000Y-188932500D03*
%TO.C,M4*%
X103970000Y-212470000D03*
X103970000Y-219670000D03*
%TO.C,M9*%
X104295000Y-242770000D03*
X104295000Y-249970000D03*
%TO.C,J29*%
X142850000Y-93060000D03*
X150050000Y-93060000D03*
%TO.C,J1*%
X160050000Y-93060000D03*
X167250000Y-93060000D03*
%TO.C,J25*%
X175525000Y-74685000D03*
%TO.C,J5*%
X177025000Y-39685000D03*
%TO.C,J23*%
X177350000Y-93060000D03*
%TO.C,J25*%
X182725000Y-74685000D03*
%TO.C,J5*%
X184225000Y-39685000D03*
%TO.C,J23*%
X184550000Y-93060000D03*
%TO.C,J26*%
X193525000Y-74685000D03*
%TO.C,J8*%
X194225000Y-39685000D03*
%TO.C,J24*%
X194350000Y-93060000D03*
%TO.C,J26*%
X200725000Y-74685000D03*
%TO.C,J8*%
X201425000Y-39685000D03*
%TO.C,J24*%
X201550000Y-93060000D03*
%TO.C,J4*%
X211525000Y-39685000D03*
%TO.C,J27*%
X211525000Y-74685000D03*
%TO.C,J4*%
X218725000Y-39685000D03*
%TO.C,J27*%
X218725000Y-74685000D03*
%TO.C,J2*%
X228725000Y-39685000D03*
%TO.C,J28*%
X229025000Y-74685000D03*
%TO.C,J2*%
X235925000Y-39685000D03*
%TO.C,J28*%
X236225000Y-74685000D03*
%TO.C,J10*%
X246225000Y-39685000D03*
%TO.C,J9*%
X247025000Y-74685000D03*
%TO.C,M6*%
X252795000Y-143770000D03*
X252795000Y-150970000D03*
%TO.C,M7*%
X252970000Y-176370000D03*
X252970000Y-183570000D03*
%TO.C,M10*%
X252970000Y-242070000D03*
X252970000Y-249270000D03*
%TO.C,M5*%
X253307500Y-109870000D03*
X253307500Y-117070000D03*
%TO.C,M8*%
X253307500Y-209470000D03*
X253307500Y-216670000D03*
%TO.C,J10*%
X253425000Y-39685000D03*
%TO.C,J9*%
X254225000Y-74685000D03*
M02*
